<svg id="SvgjsSvg1001" width="58" height="auto" viewBox="20 0 256 256" xmlns="http://www.w3.org/2000/svg" version="1.1" xmlns:xlink="http://www.w3.org/1999/xlink" xmlns:svgjs="http://svgjs.com/svgjs">
    <path id="SvgjsPath1020" d="M 144,0 C 5,0 0,5 0,144 0,283 5,288 144,288 283,288 288,283 288,144 288,5 283,0 144,0 Z" fill="#42424f" transform="matrix(0.7916,0,0,0.7916,30.009600000000006,30.009600000000006)"></path>
    <defs id="SvgjsDefs1002"></defs>
    <g id="SvgjsG1008" transform="matrix(0.61,0,0,0.61,54.65264785766601,56.04426599711179)">
        <svg xmlns="http://www.w3.org/2000/svg" width="288" height="288" preserveAspectRatio="xMinYMin meet" viewBox="5 0 256 263">
            <path fill="#ffffff" d="M166.872 131.237l45.91-79.275 22.184 79.275-22.185 79.256-45.909-79.256zm-22.376 12.874l45.916 79.262-79.966-20.486-57.77-58.776h91.82zm45.906-105.033l-45.906 79.275h-91.82l57.77-58.78 79.956-20.495zm65.539 65.18L227.933.06l-104.54 27.925-15.475 27.207-31.401-.225L0 131.244l76.517 76.259h.003l31.388-.232 15.497 27.207 104.528 27.92L255.94 158.22l-15.906-26.982 15.906-26.978z" class="color222C37 svgShape"></path>
        </svg>
    </g>
</svg>